<svg width="451" height="348" viewBox="0 0 451 348" fill="none" xmlns="http://www.w3.org/2000/svg">
<g clip-path="url(#clip0_2169:13091)">
<path d="M326.875 226.517L268.482 196.421C267.601 195.966 266.937 195.18 266.635 194.236C266.334 193.293 266.419 192.268 266.872 191.386L270.484 184.383C270.939 183.502 271.725 182.839 272.669 182.537C273.613 182.235 274.639 182.32 275.52 182.773L333.914 212.87C334.794 213.325 335.458 214.111 335.76 215.054C336.062 215.998 335.977 217.023 335.523 217.904L331.911 224.908C331.687 225.345 331.379 225.733 331.004 226.05C330.629 226.366 330.194 226.606 329.726 226.754C329.356 226.872 328.97 226.933 328.581 226.933C327.987 226.933 327.402 226.79 326.875 226.517Z" fill="#F98F3E"/>
<path d="M309.072 198.363C309.533 198.184 310.026 198.098 310.52 198.111C311.015 198.124 311.502 198.235 311.953 198.438L331.089 209.016C333.184 210.172 334.753 212.089 335.474 214.369C336.195 216.65 336.012 219.12 334.963 221.27L334.724 221.153L334.963 221.27C333.961 223.324 332.24 224.939 330.126 225.809C328.012 226.679 325.652 226.744 323.494 225.991L302.74 218.739C302.291 218.541 301.885 218.256 301.546 217.901C301.207 217.546 300.941 217.127 300.763 216.669C300.586 216.211 300.501 215.722 300.513 215.232C300.525 214.741 300.633 214.257 300.832 213.808L307.002 200.337C307.11 200.093 307.243 199.862 307.399 199.646C307.821 199.066 308.402 198.62 309.072 198.363Z" fill="#005C9F"/>
<path d="M353.102 195.132C368.888 195.132 381.685 182.339 381.685 166.558C381.685 150.777 368.888 137.984 353.102 137.984C337.317 137.984 324.52 150.777 324.52 166.558C324.52 182.339 337.317 195.132 353.102 195.132Z" fill="#F98F3E"/>
<path d="M349.595 344.263V278.587C349.596 277.596 349.991 276.646 350.691 275.945C351.392 275.245 352.343 274.851 353.334 274.85H361.216C362.207 274.851 363.158 275.245 363.858 275.945C364.559 276.646 364.954 277.596 364.955 278.587V344.263C364.954 345.254 364.559 346.204 363.858 346.905C363.158 347.605 362.207 347.999 361.216 348H353.334C352.343 347.999 351.392 347.605 350.691 346.905C349.991 346.204 349.596 345.254 349.595 344.263Z" fill="#F98F3E"/>
<path d="M332.505 344.263V278.587C332.506 277.596 332.9 276.646 333.601 275.945C334.302 275.245 335.252 274.851 336.243 274.85H344.126C345.117 274.851 346.067 275.245 346.768 275.945C347.469 276.646 347.863 277.596 347.864 278.587V344.263C347.863 345.254 347.469 346.204 346.768 346.905C346.067 347.605 345.117 347.999 344.126 348H336.243C335.252 347.999 334.302 347.605 333.601 346.905C332.9 346.204 332.506 345.254 332.505 344.263Z" fill="#F98F3E"/>
<path d="M353.703 177.148L353.733 176.08C351.746 176.025 349.994 175.9 348.677 174.939C348.304 174.651 347.997 174.286 347.778 173.869C347.559 173.452 347.432 172.992 347.406 172.521C347.382 172.234 347.426 171.945 347.533 171.677C347.64 171.409 347.807 171.169 348.021 170.976C348.895 170.238 350.301 170.477 351.326 170.947L352.21 171.352L350.515 158.971L349.457 159.116L350.898 169.648C349.506 169.238 348.216 169.415 347.332 170.161C346.992 170.457 346.726 170.827 346.554 171.243C346.382 171.659 346.308 172.11 346.338 172.559C346.369 173.191 346.539 173.809 346.834 174.369C347.129 174.929 347.543 175.418 348.047 175.801C349.739 177.037 351.937 177.099 353.703 177.148Z" fill="#2F2E41"/>
<path d="M344.223 160.023H338.471V161.091H344.223V160.023Z" fill="#2F2E41"/>
<path d="M362.382 160.023H356.629V161.091H362.382V160.023Z" fill="#2F2E41"/>
<path d="M380.455 289.454L370.569 224.526C370.421 223.546 370.667 222.548 371.255 221.75C371.842 220.951 372.722 220.419 373.702 220.269L381.495 219.083C382.475 218.935 383.474 219.182 384.272 219.769C385.07 220.356 385.603 221.236 385.753 222.215L395.639 287.144C395.787 288.124 395.54 289.122 394.953 289.92C394.366 290.718 393.485 291.251 392.506 291.401L384.713 292.587C384.228 292.661 383.732 292.639 383.255 292.521C382.779 292.404 382.33 292.194 381.934 291.903C381.539 291.612 381.204 291.246 380.95 290.826C380.697 290.406 380.528 289.94 380.455 289.454V289.454Z" fill="#F98F3E"/>
<path d="M372.814 247.78C372.398 247.513 372.039 247.165 371.759 246.757C371.479 246.349 371.283 245.89 371.183 245.406L368.502 223.711C368.208 221.337 368.837 218.941 370.259 217.018C371.682 215.095 373.789 213.792 376.145 213.378L376.192 213.64L376.145 213.378C378.397 212.982 380.716 213.425 382.662 214.624C384.608 215.823 386.047 217.694 386.705 219.883L393.029 240.931C393.132 241.411 393.14 241.907 393.052 242.39C392.963 242.873 392.781 243.334 392.514 243.747C392.247 244.159 391.902 244.515 391.498 244.794C391.093 245.073 390.638 245.27 390.158 245.372L375.628 248.295C375.368 248.351 375.102 248.38 374.836 248.38C374.118 248.379 373.416 248.171 372.814 247.78Z" fill="#005C9F"/>
<path d="M373.581 294.71H297.197C296.423 294.71 295.661 294.511 294.984 294.134C294.308 293.756 293.739 293.212 293.333 292.553C292.926 291.894 292.695 291.141 292.662 290.368C292.628 289.594 292.794 288.825 293.142 288.133L330.072 214.716C332.638 209.615 336.85 205.528 342.028 203.117C347.205 200.706 353.045 200.111 358.603 201.429C364.16 202.748 369.11 205.901 372.652 210.381C376.194 214.86 378.121 220.403 378.121 226.113V290.172C378.12 291.375 377.641 292.528 376.79 293.379C375.939 294.23 374.785 294.708 373.581 294.71Z" fill="#005C9F"/>
<path d="M354.115 142.984C348.264 144.29 343.329 148.103 337.446 149.288C334.765 149.828 331.812 149.806 329.35 148.487C327.527 147.497 326.132 145.87 325.433 143.917C324.741 141.92 324.563 139.781 324.915 137.696C325.266 135.612 326.136 133.65 327.445 131.989C330.747 127.948 336.013 126.086 341.064 125.561C351.175 124.51 361.559 127.841 369.788 133.642C378.285 139.633 384.803 148.627 386.989 158.864C388.158 164.336 388.043 170.158 386.047 175.427C384.128 180.469 380.35 184.586 375.489 186.93C374.329 187.489 373.12 187.94 371.876 188.275C371.678 188.337 371.511 188.474 371.412 188.656C371.312 188.839 371.288 189.052 371.343 189.253C371.398 189.453 371.529 189.624 371.708 189.73C371.887 189.835 372.1 189.868 372.302 189.819C377.767 188.327 382.482 184.856 385.529 180.082C388.66 175.076 389.71 168.949 389.228 163.125C388.295 151.861 382.098 141.507 373.436 134.419C365.114 127.61 354.348 123.466 343.524 123.796C338.096 123.961 332.461 125.338 328.239 128.914C326.42 130.452 325.012 132.418 324.141 134.635C323.27 136.851 322.964 139.25 323.25 141.614C323.493 143.826 324.371 145.92 325.779 147.644C327.501 149.588 329.887 150.82 332.47 151.098C338.871 151.931 344.421 148.304 350.076 145.973C351.521 145.365 353.014 144.882 354.541 144.529C355.547 144.304 355.121 142.76 354.115 142.984Z" fill="#2F2E41"/>
<path d="M370.191 131.664C367.893 123.064 373.891 114.114 382.039 111.429C386.715 109.973 391.731 110.029 396.373 111.588C400.899 113.119 404.964 115.772 408.186 119.298C415.329 126.895 418.493 137.147 419.974 147.256C421.503 157.693 420.64 169.125 425.982 178.609C428.197 182.541 431.485 185.984 435.733 187.678C439.696 189.257 444.443 189.265 448.24 187.212C449.154 186.712 449.999 186.095 450.753 185.377C451.505 184.668 450.37 183.537 449.62 184.244C446.441 187.243 441.702 187.809 437.616 186.632C433.159 185.348 429.729 181.924 427.468 177.981C424.854 173.421 423.765 168.209 423.172 163.038C422.523 157.393 422.274 151.717 421.408 146.095C419.847 135.954 416.474 125.775 409.319 118.166C406.047 114.612 401.966 111.898 397.423 110.253C392.745 108.579 387.677 108.323 382.855 109.518C378.472 110.653 374.608 113.25 371.903 116.88C369.274 120.325 367.938 124.583 368.126 128.912C368.194 129.986 368.369 131.05 368.646 132.09C368.709 132.288 368.845 132.455 369.028 132.554C369.21 132.653 369.424 132.678 369.625 132.623C369.825 132.568 369.996 132.437 370.102 132.258C370.208 132.079 370.24 131.866 370.191 131.664L370.191 131.664Z" fill="#2F2E41"/>
<path d="M55.6819 204.482H9.07918C6.67206 204.479 4.36431 203.522 2.66222 201.82C0.960133 200.119 0.0027098 197.812 0 195.406V9.07622C0.0027098 6.66989 0.960133 4.36289 2.66222 2.66136C4.36431 0.959823 6.67206 0.00270891 9.07918 0H135.483L158.619 20.6501V58.1945H157.55V21.1282L135.076 1.06779H9.07918C6.95526 1.07019 4.91901 1.91471 3.41717 3.41606C1.91533 4.91741 1.07054 6.95299 1.06814 9.07622V195.406C1.07054 197.529 1.91533 199.564 3.41717 201.066C4.91901 202.567 6.95526 203.412 9.07918 203.414H55.6819V204.482Z" fill="#CCCCCC"/>
<path d="M158.085 21.3558H143.665C141.258 21.3531 138.95 20.396 137.248 18.6944C135.546 16.9929 134.588 14.6859 134.585 12.2796V0.533895C134.585 0.392297 134.642 0.256498 134.742 0.156374C134.842 0.0562491 134.978 0 135.12 0C135.261 0 135.397 0.0562491 135.497 0.156374C135.597 0.256498 135.654 0.392297 135.654 0.533895V12.2796C135.656 14.4028 136.501 16.4384 138.003 17.9397C139.504 19.4411 141.541 20.2856 143.665 20.288H158.085C158.226 20.288 158.362 20.3443 158.462 20.4444C158.562 20.5445 158.619 20.6803 158.619 20.8219C158.619 20.9635 158.562 21.0993 158.462 21.1994C158.362 21.2996 158.226 21.3558 158.085 21.3558Z" fill="#CCCCCC"/>
<path d="M140.215 48.3184H18.4469C17.3137 48.3184 16.227 48.7684 15.4257 49.5694C14.6245 50.3703 14.1743 51.4567 14.1743 52.5895C14.1743 53.7223 14.6245 54.8087 15.4257 55.6097C16.227 56.4107 17.3137 56.8607 18.4469 56.8607H140.215C141.348 56.8607 142.435 56.4107 143.236 55.6097C144.037 54.8087 144.487 53.7223 144.487 52.5895C144.487 51.4567 144.037 50.3703 143.236 49.5694C142.435 48.7684 141.348 48.3184 140.215 48.3184Z" fill="#E6E6E6"/>
<path d="M78.7967 30.166H18.4469C17.3137 30.166 16.227 30.616 15.4257 31.417C14.6245 32.218 14.1743 33.3044 14.1743 34.4372C14.1743 35.57 14.6245 36.6563 15.4257 37.4573C16.227 38.2583 17.3137 38.7083 18.4469 38.7083H78.7967C79.9298 38.7083 81.0166 38.2583 81.8178 37.4573C82.6191 36.6563 83.0693 35.57 83.0693 34.4372C83.0693 33.3044 82.6191 32.218 81.8178 31.417C81.0166 30.616 79.9298 30.166 78.7967 30.166Z" fill="#E6E6E6"/>
<path d="M18.4469 84.0879C17.3137 84.0879 16.227 84.5379 15.4257 85.3389C14.6245 86.1399 14.1743 87.2263 14.1743 88.359C14.1743 89.4918 14.6245 90.5782 15.4257 91.3792C16.227 92.1802 17.3137 92.6302 18.4469 92.6302H56.6115V84.0879H18.4469Z" fill="#E6E6E6"/>
<path d="M18.4469 65.9355C17.8858 65.9355 17.3302 66.046 16.8118 66.2607C16.2935 66.4753 15.8225 66.7899 15.4257 67.1865C15.029 67.5832 14.7143 68.054 14.4995 68.5722C14.2848 69.0904 14.1743 69.6458 14.1743 70.2067C14.1743 70.7676 14.2848 71.323 14.4995 71.8412C14.7143 72.3594 15.029 72.8302 15.4257 73.2269C15.8225 73.6235 16.2935 73.9381 16.8118 74.1527C17.3302 74.3674 17.8858 74.4779 18.4469 74.4779H56.6115V65.9355H18.4469Z" fill="#E6E6E6"/>
<path d="M56.8784 174.583H22.6766C20.3403 174.58 18.1005 173.651 16.4484 172C14.7964 170.348 13.8671 168.109 13.8645 165.774V120.926C13.8671 118.591 14.7964 116.352 16.4484 114.7C18.1005 113.049 20.3403 112.12 22.6766 112.117H56.8784V174.583Z" fill="#E6E6E6"/>
<path d="M112.026 261.876H65.4234C63.0163 261.874 60.7085 260.916 59.0065 259.215C57.3044 257.513 56.3469 255.206 56.3442 252.8V66.4707C56.3469 64.0644 57.3044 61.7574 59.0065 60.0559C60.7085 58.3544 63.0163 57.3972 65.4234 57.3945H191.827L214.963 78.0446V113.453H213.895V78.5227L191.42 58.4623H65.4234C63.2995 58.4647 61.2633 59.3092 59.7614 60.8106C58.2596 62.3119 57.4148 64.3475 57.4124 66.4707V252.8C57.4148 254.923 58.2596 256.959 59.7614 258.46C61.2633 259.962 63.2995 260.806 65.4234 260.808H112.026V261.876Z" fill="#CCCCCC"/>
<path d="M214.429 78.7503H200.009C197.602 78.7476 195.294 77.7905 193.592 76.089C191.89 74.3874 190.932 72.0804 190.93 69.6741V57.9284C190.93 57.7868 190.986 57.651 191.086 57.5509C191.186 57.4508 191.322 57.3945 191.464 57.3945C191.605 57.3945 191.741 57.4508 191.841 57.5509C191.942 57.651 191.998 57.7868 191.998 57.9284V69.6741C192 71.7973 192.845 73.8329 194.347 75.3343C195.849 76.8356 197.885 77.6801 200.009 77.6825H214.429C214.57 77.6825 214.706 77.7388 214.806 77.8389C214.907 77.939 214.963 78.0748 214.963 78.2164C214.963 78.358 214.907 78.4938 214.806 78.594C214.706 78.6941 214.57 78.7503 214.429 78.7503Z" fill="#CCCCCC"/>
<path d="M196.559 105.711H74.7911C73.658 105.711 72.5712 106.161 71.77 106.962C70.9687 107.763 70.5186 108.849 70.5186 109.982C70.5186 111.115 70.9687 112.201 71.77 113.002C72.5712 113.803 73.658 114.253 74.7911 114.253H196.559C197.692 114.253 198.779 113.803 199.58 113.002C200.381 112.201 200.831 111.115 200.831 109.982C200.831 108.849 200.381 107.763 199.58 106.962C198.779 106.161 197.692 105.711 196.559 105.711Z" fill="#E6E6E6"/>
<path d="M135.141 87.5586H74.7911C73.658 87.5586 72.5712 88.0086 71.77 88.8096C70.9687 89.6106 70.5186 90.697 70.5186 91.8298C70.5186 92.9625 70.9687 94.0489 71.77 94.8499C72.5712 95.6509 73.658 96.1009 74.7911 96.1009H135.141C136.274 96.1009 137.361 95.6509 138.162 94.8499C138.963 94.0489 139.414 92.9625 139.414 91.8298C139.414 90.697 138.963 89.6106 138.162 88.8096C137.361 88.0086 136.274 87.5586 135.141 87.5586Z" fill="#E6E6E6"/>
<path d="M196.559 105.711H74.7911C73.658 105.711 72.5712 106.161 71.77 106.962C70.9687 107.763 70.5186 108.849 70.5186 109.982C70.5186 111.115 70.9687 112.201 71.77 113.002C72.5712 113.803 73.658 114.253 74.7911 114.253H196.559C197.692 114.253 198.779 113.803 199.58 113.002C200.381 112.201 200.831 111.115 200.831 109.982C200.831 108.849 200.381 107.763 199.58 106.962C198.779 106.161 197.692 105.711 196.559 105.711Z" fill="#E6E6E6"/>
<path d="M135.141 87.5586H74.7911C73.658 87.5586 72.5712 88.0086 71.77 88.8096C70.9687 89.6106 70.5186 90.697 70.5186 91.8298C70.5186 92.9625 70.9687 94.0489 71.77 94.8499C72.5712 95.6509 73.658 96.1009 74.7911 96.1009H135.141C136.274 96.1009 137.361 95.6509 138.162 94.8499C138.963 94.0489 139.414 92.9625 139.414 91.8298C139.414 90.697 138.963 89.6106 138.162 88.8096C137.361 88.0086 136.274 87.5586 135.141 87.5586Z" fill="#E6E6E6"/>
<path d="M74.7911 141.482C73.658 141.482 72.5712 141.932 71.77 142.733C70.9687 143.534 70.5186 144.621 70.5186 145.754C70.5186 146.886 70.9687 147.973 71.77 148.774C72.5712 149.575 73.658 150.025 74.7911 150.025H112.956V141.482H74.7911Z" fill="#E6E6E6"/>
<path d="M74.7911 123.33C73.658 123.33 72.5712 123.78 71.77 124.581C70.9687 125.382 70.5186 126.468 70.5186 127.601C70.5186 128.734 70.9687 129.82 71.77 130.621C72.5712 131.422 73.658 131.872 74.7911 131.872H112.956V123.33H74.7911Z" fill="#E6E6E6"/>
<path d="M74.7911 141.482C73.658 141.482 72.5712 141.932 71.77 142.733C70.9687 143.534 70.5186 144.621 70.5186 145.754C70.5186 146.886 70.9687 147.973 71.77 148.774C72.5712 149.575 73.658 150.025 74.7911 150.025H112.956V141.482H74.7911Z" fill="#E6E6E6"/>
<path d="M74.7911 123.33C73.658 123.33 72.5712 123.78 71.77 124.581C70.9687 125.382 70.5186 126.468 70.5186 127.601C70.5186 128.734 70.9687 129.82 71.77 130.621C72.5712 131.422 73.658 131.872 74.7911 131.872H112.956V123.33H74.7911Z" fill="#E6E6E6"/>
<path d="M113.223 231.977H79.0209C76.6846 231.975 74.4447 231.046 72.7927 229.394C71.1406 227.743 70.2114 225.504 70.2087 223.168V178.321C70.2114 175.985 71.1406 173.746 72.7927 172.095C74.4447 170.443 76.6846 169.514 79.0209 169.512H113.223V231.977Z" fill="#E6E6E6"/>
<path d="M116.235 115.321C114.907 116.131 113.811 117.268 113.049 118.624C112.288 119.98 111.888 121.508 111.887 123.063V124.397H112.956V123.063C112.958 121.297 113.542 119.581 114.619 118.182C115.696 116.782 117.204 115.777 118.91 115.321H116.235ZM247.37 113.986H120.967C118.56 113.989 116.252 114.946 114.55 116.648C112.848 118.349 111.89 120.656 111.887 123.063V309.392C111.891 311.798 112.849 314.105 114.55 315.806C116.252 317.507 118.56 318.465 120.967 318.468H261.427C263.834 318.465 266.141 317.507 267.843 315.806C269.545 314.105 270.503 311.798 270.506 309.392V134.637L247.37 113.986ZM269.438 309.392C269.435 311.515 268.59 313.55 267.089 315.052C265.587 316.553 263.551 317.398 261.427 317.4H120.967C118.843 317.398 116.807 316.553 115.305 315.052C113.803 313.55 112.958 311.515 112.956 309.392V123.063C112.958 121.297 113.542 119.581 114.619 118.182C115.696 116.782 117.204 115.777 118.91 115.321C119.581 115.142 120.272 115.053 120.967 115.054H246.964L269.438 135.113V309.392ZM116.235 115.321C114.907 116.131 113.811 117.268 113.049 118.624C112.288 119.98 111.888 121.508 111.887 123.063V124.397H112.956V123.063C112.958 121.297 113.542 119.581 114.619 118.182C115.696 116.782 117.204 115.777 118.91 115.321H116.235Z" fill="#3F3D56"/>
<path d="M269.972 135.342H255.552C253.145 135.339 250.837 134.382 249.135 132.681C247.433 130.979 246.476 128.672 246.473 126.266V114.52C246.473 114.379 246.529 114.243 246.629 114.143C246.729 114.043 246.865 113.986 247.007 113.986C247.149 113.986 247.284 114.043 247.385 114.143C247.485 114.243 247.541 114.379 247.541 114.52V126.266C247.543 128.389 248.388 130.425 249.89 131.926C251.392 133.427 253.428 134.272 255.552 134.274H269.972C270.114 134.274 270.249 134.331 270.35 134.431C270.45 134.531 270.506 134.667 270.506 134.808C270.506 134.95 270.45 135.086 270.35 135.186C270.249 135.286 270.114 135.342 269.972 135.342Z" fill="#3F3D56"/>
<path d="M252.103 170.847H130.335C129.202 170.847 128.115 170.397 127.314 169.596C126.513 168.795 126.062 167.709 126.062 166.576C126.062 165.443 126.513 164.357 127.314 163.556C128.115 162.755 129.202 162.305 130.335 162.305H252.103C253.236 162.305 254.323 162.755 255.124 163.556C255.925 164.357 256.375 165.443 256.375 166.576C256.375 167.709 255.925 168.795 255.124 169.596C254.323 170.397 253.236 170.847 252.103 170.847Z" fill="#CCCCCC"/>
<path d="M190.685 152.695H130.335C129.202 152.695 128.115 152.245 127.314 151.444C126.513 150.643 126.062 149.556 126.062 148.424C126.062 147.291 126.513 146.204 127.314 145.403C128.115 144.602 129.202 144.152 130.335 144.152H190.685C191.818 144.152 192.905 144.602 193.706 145.403C194.507 146.204 194.957 147.291 194.957 148.424C194.957 149.556 194.507 150.643 193.706 151.444C192.905 152.245 191.818 152.695 190.685 152.695Z" fill="#CCCCCC"/>
<path d="M252.103 206.617H130.335C129.202 206.617 128.115 206.167 127.314 205.366C126.513 204.565 126.062 203.478 126.062 202.345C126.062 201.213 126.513 200.126 127.314 199.325C128.115 198.524 129.202 198.074 130.335 198.074H252.103C253.236 198.074 254.323 198.524 255.124 199.325C255.925 200.126 256.375 201.213 256.375 202.345C256.375 203.478 255.925 204.565 255.124 205.366C254.323 206.167 253.236 206.617 252.103 206.617Z" fill="#CCCCCC"/>
<path d="M190.685 188.464H130.335C129.202 188.464 128.115 188.014 127.314 187.213C126.513 186.412 126.062 185.326 126.062 184.193C126.062 183.06 126.513 181.974 127.314 181.173C128.115 180.372 129.202 179.922 130.335 179.922H190.685C191.818 179.922 192.905 180.372 193.706 181.173C194.507 181.974 194.957 183.06 194.957 184.193C194.957 185.326 194.507 186.412 193.706 187.213C192.905 188.014 191.818 188.464 190.685 188.464Z" fill="#CCCCCC"/>
<path d="M247.786 288.571H134.563C132.227 288.569 129.987 287.64 128.335 285.988C126.683 284.337 125.754 282.097 125.751 279.762V234.915C125.754 232.579 126.683 230.34 128.335 228.689C129.987 227.037 132.227 226.108 134.563 226.105H247.786C250.122 226.108 252.362 227.037 254.014 228.689C255.666 230.34 256.596 232.579 256.598 234.915V279.762C256.596 282.097 255.666 284.337 254.014 285.988C252.362 287.64 250.122 288.569 247.786 288.571Z" fill="#F98F3E"/>
</g>
<defs>
<clipPath id="clip0_2169:13091">
<rect width="451" height="348" fill="white"/>
</clipPath>
</defs>
</svg>
